<mxfile host="app.diagrams.net" modified="2023-10-02T23:30:31.998Z" agent="Mozilla/5.0 (Macintosh; Intel Mac OS X 10_15_7) AppleWebKit/537.36 (KHTML, like Gecko) Chrome/117.0.0.0 Safari/537.36" etag="dLwaZfUjDmz9_eXXMMnr" version="21.7.2" type="device">
  <diagram name="Page-1" id="wuaurv5I-6Jd20xGGzwU">
    <mxGraphModel dx="1434" dy="1897" grid="1" gridSize="10" guides="1" tooltips="1" connect="1" arrows="1" fold="1" page="1" pageScale="1" pageWidth="850" pageHeight="1100" math="0" shadow="0">
      <root>
        <mxCell id="0" />
        <mxCell id="1" parent="0" />
        <mxCell id="OzX1Dmt7QXQ8DhSSnQp_-1" value="Cliente" style="image;aspect=fixed;perimeter=ellipsePerimeter;html=1;align=center;shadow=0;dashed=0;spacingTop=3;image=img/lib/active_directory/user.svg;" parent="1" vertex="1">
          <mxGeometry x="129.4" y="-724.1" width="18.5" height="50" as="geometry" />
        </mxCell>
        <mxCell id="OzX1Dmt7QXQ8DhSSnQp_-2" value="Aplicação" style="image;points=[];aspect=fixed;html=1;align=center;shadow=0;dashed=0;image=img/lib/allied_telesis/computer_and_terminals/Personal_Computer.svg;" parent="1" vertex="1">
          <mxGeometry x="444.4" y="-730" width="45.6" height="61.800000000000004" as="geometry" />
        </mxCell>
        <mxCell id="OzX1Dmt7QXQ8DhSSnQp_-3" value="" style="endArrow=classic;html=1;rounded=0;" parent="1" edge="1">
          <mxGeometry width="50" height="50" relative="1" as="geometry">
            <mxPoint x="179.4" y="-700" as="sourcePoint" />
            <mxPoint x="419.4" y="-700" as="targetPoint" />
          </mxGeometry>
        </mxCell>
        <mxCell id="OzX1Dmt7QXQ8DhSSnQp_-6" value="Solicita lista de produtos disponíveis" style="text;html=1;strokeColor=none;fillColor=none;align=center;verticalAlign=middle;whiteSpace=wrap;rounded=0;" parent="1" vertex="1">
          <mxGeometry x="157.9" y="-724.1" width="280" height="30" as="geometry" />
        </mxCell>
        <mxCell id="OzX1Dmt7QXQ8DhSSnQp_-8" value="&lt;b&gt;2&lt;/b&gt;" style="ellipse;whiteSpace=wrap;html=1;aspect=fixed;" parent="1" vertex="1">
          <mxGeometry x="79.4" y="-760" width="30" height="30" as="geometry" />
        </mxCell>
        <mxCell id="OzX1Dmt7QXQ8DhSSnQp_-11" value="" style="endArrow=classic;html=1;rounded=0;" parent="1" edge="1">
          <mxGeometry width="50" height="50" relative="1" as="geometry">
            <mxPoint x="459.4" y="-640" as="sourcePoint" />
            <mxPoint x="339.4" y="-540" as="targetPoint" />
            <Array as="points">
              <mxPoint x="459.4" y="-540" />
            </Array>
          </mxGeometry>
        </mxCell>
        <mxCell id="OzX1Dmt7QXQ8DhSSnQp_-12" value="Catálogo de produtos" style="image;aspect=fixed;perimeter=ellipsePerimeter;html=1;align=center;shadow=0;dashed=0;spacingTop=3;image=img/lib/active_directory/list.svg;" parent="1" vertex="1">
          <mxGeometry x="269.4" y="-570" width="35" height="50" as="geometry" />
        </mxCell>
        <mxCell id="OzX1Dmt7QXQ8DhSSnQp_-13" value="Retorna" style="text;html=1;strokeColor=none;fillColor=none;align=center;verticalAlign=middle;whiteSpace=wrap;rounded=0;" parent="1" vertex="1">
          <mxGeometry x="389.4" y="-570" width="60" height="30" as="geometry" />
        </mxCell>
        <mxCell id="OzX1Dmt7QXQ8DhSSnQp_-14" value="" style="endArrow=classic;html=1;rounded=0;" parent="1" edge="1">
          <mxGeometry width="50" height="50" relative="1" as="geometry">
            <mxPoint x="239.4" y="-540" as="sourcePoint" />
            <mxPoint x="139.4" y="-630" as="targetPoint" />
            <Array as="points">
              <mxPoint x="139.4" y="-540" />
            </Array>
          </mxGeometry>
        </mxCell>
        <mxCell id="OzX1Dmt7QXQ8DhSSnQp_-15" value="ao" style="text;html=1;strokeColor=none;fillColor=none;align=center;verticalAlign=middle;whiteSpace=wrap;rounded=0;" parent="1" vertex="1">
          <mxGeometry x="129.4" y="-570" width="60" height="30" as="geometry" />
        </mxCell>
        <mxCell id="OzX1Dmt7QXQ8DhSSnQp_-17" value="Cliente" style="image;aspect=fixed;perimeter=ellipsePerimeter;html=1;align=center;shadow=0;dashed=0;spacingTop=3;image=img/lib/active_directory/user.svg;" parent="1" vertex="1">
          <mxGeometry x="130" y="-430" width="18.5" height="50" as="geometry" />
        </mxCell>
        <mxCell id="OzX1Dmt7QXQ8DhSSnQp_-18" value="produto" style="shape=image;html=1;verticalAlign=top;verticalLabelPosition=bottom;labelBackgroundColor=#ffffff;imageAspect=0;aspect=fixed;image=https://cdn1.iconfinder.com/data/icons/cartoon-snack/128/burger-128.png" parent="1" vertex="1">
          <mxGeometry x="270" y="-435.5" width="68" height="68" as="geometry" />
        </mxCell>
        <mxCell id="OzX1Dmt7QXQ8DhSSnQp_-19" value="" style="endArrow=classic;html=1;rounded=0;" parent="1" edge="1">
          <mxGeometry width="50" height="50" relative="1" as="geometry">
            <mxPoint x="170" y="-395.5" as="sourcePoint" />
            <mxPoint x="260" y="-395.5" as="targetPoint" />
          </mxGeometry>
        </mxCell>
        <mxCell id="OzX1Dmt7QXQ8DhSSnQp_-20" value="escolhe" style="text;html=1;strokeColor=none;fillColor=none;align=center;verticalAlign=middle;whiteSpace=wrap;rounded=0;" parent="1" vertex="1">
          <mxGeometry x="180" y="-425.5" width="60" height="30" as="geometry" />
        </mxCell>
        <mxCell id="OzX1Dmt7QXQ8DhSSnQp_-22" value="&lt;b&gt;3&lt;/b&gt;" style="ellipse;whiteSpace=wrap;html=1;aspect=fixed;" parent="1" vertex="1">
          <mxGeometry x="80" y="-480" width="30" height="30" as="geometry" />
        </mxCell>
        <mxCell id="OzX1Dmt7QXQ8DhSSnQp_-23" value="pedido" style="image;html=1;image=img/lib/clip_art/finance/Shopping_Cart_128x128.png" parent="1" vertex="1">
          <mxGeometry x="500" y="-442.5" width="70" height="64" as="geometry" />
        </mxCell>
        <mxCell id="OzX1Dmt7QXQ8DhSSnQp_-24" value="" style="endArrow=classic;html=1;rounded=0;" parent="1" edge="1">
          <mxGeometry width="50" height="50" relative="1" as="geometry">
            <mxPoint x="350" y="-395.5" as="sourcePoint" />
            <mxPoint x="490" y="-395.5" as="targetPoint" />
          </mxGeometry>
        </mxCell>
        <mxCell id="OzX1Dmt7QXQ8DhSSnQp_-25" value="a ser adicionado no" style="text;html=1;strokeColor=none;fillColor=none;align=center;verticalAlign=middle;whiteSpace=wrap;rounded=0;" parent="1" vertex="1">
          <mxGeometry x="360" y="-425.5" width="110" height="30" as="geometry" />
        </mxCell>
        <mxCell id="OzX1Dmt7QXQ8DhSSnQp_-26" value="&lt;h1&gt;Realização do pedido e pagamento&lt;/h1&gt;&lt;p&gt;Descrição do processo de realização do pedido e pagamento em um sistema de fast-food.&lt;/p&gt;" style="text;html=1;strokeColor=none;fillColor=none;spacing=5;spacingTop=-20;whiteSpace=wrap;overflow=hidden;rounded=0;" parent="1" vertex="1">
          <mxGeometry x="50" y="-1060" width="290" height="140" as="geometry" />
        </mxCell>
        <mxCell id="OzX1Dmt7QXQ8DhSSnQp_-27" value="Cliente" style="image;aspect=fixed;perimeter=ellipsePerimeter;html=1;align=center;shadow=0;dashed=0;spacingTop=3;image=img/lib/active_directory/user.svg;" parent="1" vertex="1">
          <mxGeometry x="130" y="-270" width="18.5" height="50" as="geometry" />
        </mxCell>
        <mxCell id="OzX1Dmt7QXQ8DhSSnQp_-29" value="" style="endArrow=classic;html=1;rounded=0;" parent="1" edge="1">
          <mxGeometry width="50" height="50" relative="1" as="geometry">
            <mxPoint x="170" y="-235.5" as="sourcePoint" />
            <mxPoint x="260" y="-235.5" as="targetPoint" />
          </mxGeometry>
        </mxCell>
        <mxCell id="OzX1Dmt7QXQ8DhSSnQp_-30" value="finaliza" style="text;html=1;strokeColor=none;fillColor=none;align=center;verticalAlign=middle;whiteSpace=wrap;rounded=0;" parent="1" vertex="1">
          <mxGeometry x="180" y="-265.5" width="60" height="30" as="geometry" />
        </mxCell>
        <mxCell id="OzX1Dmt7QXQ8DhSSnQp_-31" value="&lt;b&gt;4&lt;/b&gt;" style="ellipse;whiteSpace=wrap;html=1;aspect=fixed;" parent="1" vertex="1">
          <mxGeometry x="80" y="-320" width="30" height="30" as="geometry" />
        </mxCell>
        <mxCell id="OzX1Dmt7QXQ8DhSSnQp_-32" value="pedido" style="image;html=1;image=img/lib/clip_art/finance/Shopping_Cart_128x128.png" parent="1" vertex="1">
          <mxGeometry x="269" y="-277" width="70" height="64" as="geometry" />
        </mxCell>
        <mxCell id="ye5l1tjyb0kLey99E6Re-64" style="edgeStyle=orthogonalEdgeStyle;rounded=0;orthogonalLoop=1;jettySize=auto;html=1;" edge="1" parent="1" source="OzX1Dmt7QXQ8DhSSnQp_-35">
          <mxGeometry relative="1" as="geometry">
            <mxPoint x="488" y="-100" as="targetPoint" />
          </mxGeometry>
        </mxCell>
        <mxCell id="ye5l1tjyb0kLey99E6Re-67" value="apresenta" style="edgeLabel;html=1;align=center;verticalAlign=middle;resizable=0;points=[];" vertex="1" connectable="0" parent="ye5l1tjyb0kLey99E6Re-64">
          <mxGeometry x="-0.0859" y="3" relative="1" as="geometry">
            <mxPoint as="offset" />
          </mxGeometry>
        </mxCell>
        <mxCell id="OzX1Dmt7QXQ8DhSSnQp_-35" value="preço" style="shape=image;html=1;verticalAlign=top;verticalLabelPosition=bottom;labelBackgroundColor=#ffffff;imageAspect=0;aspect=fixed;image=https://cdn0.iconfinder.com/data/icons/business-startup-10/50/29-128.png" parent="1" vertex="1">
          <mxGeometry x="269.99999999999994" y="-129.1" width="70" height="70" as="geometry" />
        </mxCell>
        <mxCell id="OzX1Dmt7QXQ8DhSSnQp_-36" value="" style="endArrow=classic;html=1;rounded=0;" parent="1" edge="1" target="OzX1Dmt7QXQ8DhSSnQp_-35" source="ye5l1tjyb0kLey99E6Re-16">
          <mxGeometry width="50" height="50" relative="1" as="geometry">
            <mxPoint x="720" y="-174" as="sourcePoint" />
            <mxPoint x="820" y="-174.5" as="targetPoint" />
          </mxGeometry>
        </mxCell>
        <mxCell id="ye5l1tjyb0kLey99E6Re-18" value="calcula" style="edgeLabel;html=1;align=center;verticalAlign=middle;resizable=0;points=[];" vertex="1" connectable="0" parent="OzX1Dmt7QXQ8DhSSnQp_-36">
          <mxGeometry x="0.1434" y="3" relative="1" as="geometry">
            <mxPoint as="offset" />
          </mxGeometry>
        </mxCell>
        <mxCell id="OzX1Dmt7QXQ8DhSSnQp_-38" value="pagamento" style="image;html=1;image=img/lib/clip_art/finance/Credit_Card_128x128.png" parent="1" vertex="1">
          <mxGeometry x="283" y="195.89999999999998" width="56" height="60" as="geometry" />
        </mxCell>
        <mxCell id="ye5l1tjyb0kLey99E6Re-1" value="Cliente" style="image;aspect=fixed;perimeter=ellipsePerimeter;html=1;align=center;shadow=0;dashed=0;spacingTop=3;image=img/lib/active_directory/user.svg;" vertex="1" parent="1">
          <mxGeometry x="129.4" y="-884.1" width="18.5" height="50" as="geometry" />
        </mxCell>
        <mxCell id="ye5l1tjyb0kLey99E6Re-2" value="Aplicação" style="image;points=[];aspect=fixed;html=1;align=center;shadow=0;dashed=0;image=img/lib/allied_telesis/computer_and_terminals/Personal_Computer.svg;" vertex="1" parent="1">
          <mxGeometry x="444.4" y="-890" width="45.6" height="61.800000000000004" as="geometry" />
        </mxCell>
        <mxCell id="ye5l1tjyb0kLey99E6Re-3" value="" style="endArrow=classic;html=1;rounded=0;" edge="1" parent="1">
          <mxGeometry width="50" height="50" relative="1" as="geometry">
            <mxPoint x="179.39999999999998" y="-860" as="sourcePoint" />
            <mxPoint x="419.4" y="-860" as="targetPoint" />
          </mxGeometry>
        </mxCell>
        <mxCell id="ye5l1tjyb0kLey99E6Re-4" value="Se identifica" style="text;html=1;strokeColor=none;fillColor=none;align=center;verticalAlign=middle;whiteSpace=wrap;rounded=0;" vertex="1" parent="1">
          <mxGeometry x="157.89999999999998" y="-884.1" width="280" height="30" as="geometry" />
        </mxCell>
        <mxCell id="ye5l1tjyb0kLey99E6Re-5" value="&lt;b&gt;1&lt;/b&gt;" style="ellipse;whiteSpace=wrap;html=1;aspect=fixed;" vertex="1" parent="1">
          <mxGeometry x="79.4" y="-920" width="30" height="30" as="geometry" />
        </mxCell>
        <mxCell id="ye5l1tjyb0kLey99E6Re-12" value="Informa nome, e-mail e CPF" style="whiteSpace=wrap;html=1;shape=mxgraph.basic.document" vertex="1" parent="1">
          <mxGeometry x="310" y="-850" width="110" height="50" as="geometry" />
        </mxCell>
        <mxCell id="ye5l1tjyb0kLey99E6Re-15" style="edgeStyle=orthogonalEdgeStyle;rounded=0;orthogonalLoop=1;jettySize=auto;html=1;endArrow=none;endFill=0;dashed=1;" edge="1" parent="1" source="ye5l1tjyb0kLey99E6Re-13" target="OzX1Dmt7QXQ8DhSSnQp_-12">
          <mxGeometry relative="1" as="geometry" />
        </mxCell>
        <mxCell id="ye5l1tjyb0kLey99E6Re-13" value="Cada produto possui nome, descrição e preço" style="whiteSpace=wrap;html=1;shape=mxgraph.basic.document" vertex="1" parent="1">
          <mxGeometry x="269.4" y="-668.2" width="110" height="58.2" as="geometry" />
        </mxCell>
        <mxCell id="ye5l1tjyb0kLey99E6Re-16" value="Aplicação" style="image;points=[];aspect=fixed;html=1;align=center;shadow=0;dashed=0;image=img/lib/allied_telesis/computer_and_terminals/Personal_Computer.svg;" vertex="1" parent="1">
          <mxGeometry x="120" y="-124.99999999999994" width="45.6" height="61.800000000000004" as="geometry" />
        </mxCell>
        <mxCell id="ye5l1tjyb0kLey99E6Re-19" value="&lt;b&gt;5&lt;/b&gt;" style="ellipse;whiteSpace=wrap;html=1;aspect=fixed;" vertex="1" parent="1">
          <mxGeometry x="79.4" y="-160" width="30" height="30" as="geometry" />
        </mxCell>
        <mxCell id="ye5l1tjyb0kLey99E6Re-20" value="Cliente" style="image;aspect=fixed;perimeter=ellipsePerimeter;html=1;align=center;shadow=0;dashed=0;spacingTop=3;image=img/lib/active_directory/user.svg;" vertex="1" parent="1">
          <mxGeometry x="690" y="-119.1" width="18.5" height="50" as="geometry" />
        </mxCell>
        <mxCell id="ye5l1tjyb0kLey99E6Re-29" value="&lt;b&gt;6&lt;/b&gt;" style="ellipse;whiteSpace=wrap;html=1;aspect=fixed;" vertex="1" parent="1">
          <mxGeometry x="79.4" width="30" height="30" as="geometry" />
        </mxCell>
        <mxCell id="ye5l1tjyb0kLey99E6Re-31" style="edgeStyle=orthogonalEdgeStyle;rounded=0;orthogonalLoop=1;jettySize=auto;html=1;" edge="1" parent="1" source="ye5l1tjyb0kLey99E6Re-30" target="ye5l1tjyb0kLey99E6Re-70">
          <mxGeometry relative="1" as="geometry">
            <mxPoint x="260" y="76" as="targetPoint" />
          </mxGeometry>
        </mxCell>
        <mxCell id="ye5l1tjyb0kLey99E6Re-32" value="faz lelitura" style="edgeLabel;html=1;align=center;verticalAlign=middle;resizable=0;points=[];" vertex="1" connectable="0" parent="ye5l1tjyb0kLey99E6Re-31">
          <mxGeometry x="0.2497" y="2" relative="1" as="geometry">
            <mxPoint as="offset" />
          </mxGeometry>
        </mxCell>
        <mxCell id="ye5l1tjyb0kLey99E6Re-30" value="Cliente" style="image;aspect=fixed;perimeter=ellipsePerimeter;html=1;align=center;shadow=0;dashed=0;spacingTop=3;image=img/lib/active_directory/user.svg;" vertex="1" parent="1">
          <mxGeometry x="133.55" y="50.900000000000006" width="18.5" height="50" as="geometry" />
        </mxCell>
        <mxCell id="ye5l1tjyb0kLey99E6Re-74" style="edgeStyle=orthogonalEdgeStyle;rounded=0;orthogonalLoop=1;jettySize=auto;html=1;endArrow=none;endFill=0;" edge="1" parent="1" source="ye5l1tjyb0kLey99E6Re-39" target="OzX1Dmt7QXQ8DhSSnQp_-38">
          <mxGeometry relative="1" as="geometry" />
        </mxCell>
        <mxCell id="ye5l1tjyb0kLey99E6Re-75" value="identifica" style="edgeLabel;html=1;align=center;verticalAlign=middle;resizable=0;points=[];" vertex="1" connectable="0" parent="ye5l1tjyb0kLey99E6Re-74">
          <mxGeometry x="-0.0392" y="-3" relative="1" as="geometry">
            <mxPoint as="offset" />
          </mxGeometry>
        </mxCell>
        <mxCell id="ye5l1tjyb0kLey99E6Re-39" value="Aplicação" style="image;points=[];aspect=fixed;html=1;align=center;shadow=0;dashed=0;image=img/lib/allied_telesis/computer_and_terminals/Personal_Computer.svg;" vertex="1" parent="1">
          <mxGeometry x="120" y="195.00000000000006" width="45.6" height="61.800000000000004" as="geometry" />
        </mxCell>
        <mxCell id="ye5l1tjyb0kLey99E6Re-40" value="&lt;b&gt;7&lt;/b&gt;" style="ellipse;whiteSpace=wrap;html=1;aspect=fixed;" vertex="1" parent="1">
          <mxGeometry x="79.4" y="160" width="30" height="30" as="geometry" />
        </mxCell>
        <mxCell id="ye5l1tjyb0kLey99E6Re-65" style="edgeStyle=orthogonalEdgeStyle;rounded=0;orthogonalLoop=1;jettySize=auto;html=1;entryX=0;entryY=0.5;entryDx=0;entryDy=0;exitX=1;exitY=0.5;exitDx=0;exitDy=0;" edge="1" parent="1" source="ye5l1tjyb0kLey99E6Re-73" target="ye5l1tjyb0kLey99E6Re-20">
          <mxGeometry relative="1" as="geometry">
            <mxPoint x="544.25" y="-94.09999999999991" as="sourcePoint" />
          </mxGeometry>
        </mxCell>
        <mxCell id="ye5l1tjyb0kLey99E6Re-66" value="ao" style="edgeLabel;html=1;align=center;verticalAlign=middle;resizable=0;points=[];" vertex="1" connectable="0" parent="ye5l1tjyb0kLey99E6Re-65">
          <mxGeometry x="-0.0762" y="-2" relative="1" as="geometry">
            <mxPoint as="offset" />
          </mxGeometry>
        </mxCell>
        <mxCell id="ye5l1tjyb0kLey99E6Re-69" style="edgeStyle=orthogonalEdgeStyle;rounded=0;orthogonalLoop=1;jettySize=auto;html=1;endArrow=none;endFill=0;dashed=1;" edge="1" parent="1" source="ye5l1tjyb0kLey99E6Re-68">
          <mxGeometry relative="1" as="geometry">
            <mxPoint x="516" y="-130" as="targetPoint" />
          </mxGeometry>
        </mxCell>
        <mxCell id="ye5l1tjyb0kLey99E6Re-68" value="QR Code do Mercado Pago" style="whiteSpace=wrap;html=1;shape=mxgraph.basic.document" vertex="1" parent="1">
          <mxGeometry x="525.75" y="-230.00000000000006" width="110" height="58.2" as="geometry" />
        </mxCell>
        <mxCell id="ye5l1tjyb0kLey99E6Re-70" value="QR Code" style="shape=image;html=1;verticalAlign=top;verticalLabelPosition=bottom;labelBackgroundColor=#ffffff;imageAspect=0;aspect=fixed;image=https://cdn1.iconfinder.com/data/icons/ionicons-outline-vol-2/512/qr-code-outline-128.png;imageBackground=#000000;" vertex="1" parent="1">
          <mxGeometry x="276" y="38.4" width="75" height="75" as="geometry" />
        </mxCell>
        <mxCell id="ye5l1tjyb0kLey99E6Re-73" value="QR Code" style="shape=image;html=1;verticalAlign=top;verticalLabelPosition=bottom;labelBackgroundColor=#ffffff;imageAspect=0;aspect=fixed;image=https://cdn1.iconfinder.com/data/icons/ionicons-outline-vol-2/512/qr-code-outline-128.png;imageBackground=#000000;" vertex="1" parent="1">
          <mxGeometry x="480" y="-129.1" width="75" height="75" as="geometry" />
        </mxCell>
        <mxCell id="ye5l1tjyb0kLey99E6Re-77" style="edgeStyle=orthogonalEdgeStyle;rounded=0;orthogonalLoop=1;jettySize=auto;html=1;endArrow=none;endFill=0;" edge="1" parent="1" source="ye5l1tjyb0kLey99E6Re-79" target="ye5l1tjyb0kLey99E6Re-81">
          <mxGeometry relative="1" as="geometry">
            <mxPoint x="282" y="385.9000000000001" as="targetPoint" />
          </mxGeometry>
        </mxCell>
        <mxCell id="ye5l1tjyb0kLey99E6Re-78" value="atualiza status" style="edgeLabel;html=1;align=center;verticalAlign=middle;resizable=0;points=[];" vertex="1" connectable="0" parent="ye5l1tjyb0kLey99E6Re-77">
          <mxGeometry x="-0.0392" y="-3" relative="1" as="geometry">
            <mxPoint as="offset" />
          </mxGeometry>
        </mxCell>
        <mxCell id="ye5l1tjyb0kLey99E6Re-79" value="Aplicação" style="image;points=[];aspect=fixed;html=1;align=center;shadow=0;dashed=0;image=img/lib/allied_telesis/computer_and_terminals/Personal_Computer.svg;" vertex="1" parent="1">
          <mxGeometry x="119" y="355.00000000000006" width="45.6" height="61.800000000000004" as="geometry" />
        </mxCell>
        <mxCell id="ye5l1tjyb0kLey99E6Re-80" value="&lt;b&gt;8&lt;/b&gt;" style="ellipse;whiteSpace=wrap;html=1;aspect=fixed;" vertex="1" parent="1">
          <mxGeometry x="78.4" y="320" width="30" height="30" as="geometry" />
        </mxCell>
        <mxCell id="ye5l1tjyb0kLey99E6Re-81" value="pedido" style="image;html=1;image=img/lib/clip_art/finance/Shopping_Cart_128x128.png" vertex="1" parent="1">
          <mxGeometry x="304.4" y="355" width="70" height="64" as="geometry" />
        </mxCell>
        <mxCell id="ye5l1tjyb0kLey99E6Re-83" value="&lt;h1&gt;Preparação e entrega do pedido&lt;/h1&gt;&lt;p&gt;Descrição do processo de preparação e entrega do pedido de fast-food.&lt;/p&gt;" style="text;html=1;strokeColor=none;fillColor=none;spacing=5;spacingTop=-20;whiteSpace=wrap;overflow=hidden;rounded=0;" vertex="1" parent="1">
          <mxGeometry x="850" y="-1060" width="290" height="140" as="geometry" />
        </mxCell>
        <mxCell id="ye5l1tjyb0kLey99E6Re-85" style="edgeStyle=orthogonalEdgeStyle;rounded=0;orthogonalLoop=1;jettySize=auto;html=1;endArrow=none;endFill=0;entryX=0.469;entryY=0.532;entryDx=0;entryDy=0;entryPerimeter=0;" edge="1" parent="1" source="ye5l1tjyb0kLey99E6Re-87" target="ye5l1tjyb0kLey99E6Re-92">
          <mxGeometry relative="1" as="geometry">
            <mxPoint x="1078" y="-833" as="targetPoint" />
          </mxGeometry>
        </mxCell>
        <mxCell id="ye5l1tjyb0kLey99E6Re-86" value="informa pedido" style="edgeLabel;html=1;align=center;verticalAlign=middle;resizable=0;points=[];" vertex="1" connectable="0" parent="ye5l1tjyb0kLey99E6Re-85">
          <mxGeometry x="-0.0392" y="-3" relative="1" as="geometry">
            <mxPoint as="offset" />
          </mxGeometry>
        </mxCell>
        <mxCell id="ye5l1tjyb0kLey99E6Re-87" value="Aplicação" style="image;points=[];aspect=fixed;html=1;align=center;shadow=0;dashed=0;image=img/lib/allied_telesis/computer_and_terminals/Personal_Computer.svg;" vertex="1" parent="1">
          <mxGeometry x="892.6" y="-865" width="45.6" height="61.800000000000004" as="geometry" />
        </mxCell>
        <mxCell id="ye5l1tjyb0kLey99E6Re-88" value="&lt;b&gt;1&lt;/b&gt;" style="ellipse;whiteSpace=wrap;html=1;aspect=fixed;" vertex="1" parent="1">
          <mxGeometry x="852" y="-900" width="30" height="30" as="geometry" />
        </mxCell>
        <mxCell id="ye5l1tjyb0kLey99E6Re-92" value="cozinha" style="shape=image;html=1;verticalAlign=top;verticalLabelPosition=bottom;labelBackgroundColor=#ffffff;imageAspect=0;aspect=fixed;image=https://cdn0.iconfinder.com/data/icons/kameleon-free-pack/110/Chef-2-128.png" vertex="1" parent="1">
          <mxGeometry x="1131.4" y="-900" width="128" height="128" as="geometry" />
        </mxCell>
        <mxCell id="ye5l1tjyb0kLey99E6Re-96" value="&lt;b&gt;2&lt;/b&gt;" style="ellipse;whiteSpace=wrap;html=1;aspect=fixed;" vertex="1" parent="1">
          <mxGeometry x="852" y="-740" width="30" height="30" as="geometry" />
        </mxCell>
        <mxCell id="ye5l1tjyb0kLey99E6Re-99" style="edgeStyle=orthogonalEdgeStyle;rounded=0;orthogonalLoop=1;jettySize=auto;html=1;entryX=0.082;entryY=0.782;entryDx=0;entryDy=0;entryPerimeter=0;" edge="1" parent="1" source="ye5l1tjyb0kLey99E6Re-97" target="ye5l1tjyb0kLey99E6Re-98">
          <mxGeometry relative="1" as="geometry" />
        </mxCell>
        <mxCell id="ye5l1tjyb0kLey99E6Re-100" value="prepara" style="edgeLabel;html=1;align=center;verticalAlign=middle;resizable=0;points=[];" vertex="1" connectable="0" parent="ye5l1tjyb0kLey99E6Re-99">
          <mxGeometry x="0.2635" relative="1" as="geometry">
            <mxPoint as="offset" />
          </mxGeometry>
        </mxCell>
        <mxCell id="ye5l1tjyb0kLey99E6Re-97" value="cozinha" style="shape=image;html=1;verticalAlign=top;verticalLabelPosition=bottom;labelBackgroundColor=#ffffff;imageAspect=0;aspect=fixed;image=https://cdn0.iconfinder.com/data/icons/kameleon-free-pack/110/Chef-2-128.png" vertex="1" parent="1">
          <mxGeometry x="880" y="-712" width="110" height="110" as="geometry" />
        </mxCell>
        <mxCell id="ye5l1tjyb0kLey99E6Re-98" value="itens do pedido" style="shape=mxgraph.signs.food.fast_food;html=1;pointerEvents=1;fillColor=#000000;strokeColor=none;verticalLabelPosition=bottom;verticalAlign=top;align=center;" vertex="1" parent="1">
          <mxGeometry x="1199.4" y="-730" width="98" height="87" as="geometry" />
        </mxCell>
        <mxCell id="ye5l1tjyb0kLey99E6Re-101" value="&lt;b&gt;3&lt;/b&gt;" style="ellipse;whiteSpace=wrap;html=1;aspect=fixed;" vertex="1" parent="1">
          <mxGeometry x="850" y="-540" width="30" height="30" as="geometry" />
        </mxCell>
        <mxCell id="ye5l1tjyb0kLey99E6Re-102" style="edgeStyle=orthogonalEdgeStyle;rounded=0;orthogonalLoop=1;jettySize=auto;html=1;" edge="1" parent="1" source="ye5l1tjyb0kLey99E6Re-104" target="ye5l1tjyb0kLey99E6Re-107">
          <mxGeometry relative="1" as="geometry">
            <mxPoint x="1205.4360000000001" y="-461.96600000000035" as="targetPoint" />
          </mxGeometry>
        </mxCell>
        <mxCell id="ye5l1tjyb0kLey99E6Re-103" value="atualiza" style="edgeLabel;html=1;align=center;verticalAlign=middle;resizable=0;points=[];" vertex="1" connectable="0" parent="ye5l1tjyb0kLey99E6Re-102">
          <mxGeometry x="0.2635" relative="1" as="geometry">
            <mxPoint as="offset" />
          </mxGeometry>
        </mxCell>
        <mxCell id="ye5l1tjyb0kLey99E6Re-104" value="cozinha" style="shape=image;html=1;verticalAlign=top;verticalLabelPosition=bottom;labelBackgroundColor=#ffffff;imageAspect=0;aspect=fixed;image=https://cdn0.iconfinder.com/data/icons/kameleon-free-pack/110/Chef-2-128.png" vertex="1" parent="1">
          <mxGeometry x="878" y="-512" width="110" height="110" as="geometry" />
        </mxCell>
        <mxCell id="ye5l1tjyb0kLey99E6Re-111" style="edgeStyle=orthogonalEdgeStyle;rounded=0;orthogonalLoop=1;jettySize=auto;html=1;" edge="1" parent="1" source="ye5l1tjyb0kLey99E6Re-107" target="ye5l1tjyb0kLey99E6Re-110">
          <mxGeometry relative="1" as="geometry" />
        </mxCell>
        <mxCell id="ye5l1tjyb0kLey99E6Re-112" value="no" style="edgeLabel;html=1;align=center;verticalAlign=middle;resizable=0;points=[];" vertex="1" connectable="0" parent="ye5l1tjyb0kLey99E6Re-111">
          <mxGeometry x="0.4154" relative="1" as="geometry">
            <mxPoint as="offset" />
          </mxGeometry>
        </mxCell>
        <mxCell id="ye5l1tjyb0kLey99E6Re-107" value="status" style="outlineConnect=0;dashed=0;verticalLabelPosition=bottom;verticalAlign=top;align=center;html=1;shape=mxgraph.aws3.flow_logs;fillColor=#F58534;gradientColor=none;" vertex="1" parent="1">
          <mxGeometry x="1221" y="-493" width="69" height="72" as="geometry" />
        </mxCell>
        <mxCell id="ye5l1tjyb0kLey99E6Re-110" value="pedido" style="image;html=1;image=img/lib/clip_art/finance/Shopping_Cart_128x128.png" vertex="1" parent="1">
          <mxGeometry x="1420" y="-489" width="70" height="64" as="geometry" />
        </mxCell>
        <mxCell id="ye5l1tjyb0kLey99E6Re-113" value="&lt;b&gt;4&lt;/b&gt;" style="ellipse;whiteSpace=wrap;html=1;aspect=fixed;" vertex="1" parent="1">
          <mxGeometry x="850" y="-340" width="30" height="30" as="geometry" />
        </mxCell>
        <mxCell id="ye5l1tjyb0kLey99E6Re-114" style="edgeStyle=orthogonalEdgeStyle;rounded=0;orthogonalLoop=1;jettySize=auto;html=1;" edge="1" parent="1" source="ye5l1tjyb0kLey99E6Re-116" target="ye5l1tjyb0kLey99E6Re-120">
          <mxGeometry relative="1" as="geometry">
            <mxPoint x="1221" y="-257" as="targetPoint" />
          </mxGeometry>
        </mxCell>
        <mxCell id="ye5l1tjyb0kLey99E6Re-115" value="finaliza" style="edgeLabel;html=1;align=center;verticalAlign=middle;resizable=0;points=[];" vertex="1" connectable="0" parent="ye5l1tjyb0kLey99E6Re-114">
          <mxGeometry x="0.2635" relative="1" as="geometry">
            <mxPoint as="offset" />
          </mxGeometry>
        </mxCell>
        <mxCell id="ye5l1tjyb0kLey99E6Re-116" value="cozinha" style="shape=image;html=1;verticalAlign=top;verticalLabelPosition=bottom;labelBackgroundColor=#ffffff;imageAspect=0;aspect=fixed;image=https://cdn0.iconfinder.com/data/icons/kameleon-free-pack/110/Chef-2-128.png" vertex="1" parent="1">
          <mxGeometry x="878" y="-312" width="110" height="110" as="geometry" />
        </mxCell>
        <mxCell id="ye5l1tjyb0kLey99E6Re-120" value="pedido" style="image;html=1;image=img/lib/clip_art/finance/Shopping_Cart_128x128.png" vertex="1" parent="1">
          <mxGeometry x="1247.9" y="-289" width="70" height="64" as="geometry" />
        </mxCell>
        <mxCell id="ye5l1tjyb0kLey99E6Re-121" value="Cliente" style="image;aspect=fixed;perimeter=ellipsePerimeter;html=1;align=center;shadow=0;dashed=0;spacingTop=3;image=img/lib/active_directory/user.svg;" vertex="1" parent="1">
          <mxGeometry x="1278.9" y="-128.0999999999999" width="18.5" height="50" as="geometry" />
        </mxCell>
        <mxCell id="ye5l1tjyb0kLey99E6Re-122" value="&lt;b&gt;5&lt;/b&gt;" style="ellipse;whiteSpace=wrap;html=1;aspect=fixed;" vertex="1" parent="1">
          <mxGeometry x="850" y="20" width="30" height="30" as="geometry" />
        </mxCell>
        <mxCell id="ye5l1tjyb0kLey99E6Re-123" value="pedido" style="image;html=1;image=img/lib/clip_art/finance/Shopping_Cart_128x128.png" vertex="1" parent="1">
          <mxGeometry x="1249.9" y="26" width="70" height="64" as="geometry" />
        </mxCell>
        <mxCell id="ye5l1tjyb0kLey99E6Re-129" value="&lt;b&gt;4&lt;/b&gt;" style="ellipse;whiteSpace=wrap;html=1;aspect=fixed;" vertex="1" parent="1">
          <mxGeometry x="850" y="-140" width="30" height="30" as="geometry" />
        </mxCell>
        <mxCell id="ye5l1tjyb0kLey99E6Re-132" style="edgeStyle=orthogonalEdgeStyle;rounded=0;orthogonalLoop=1;jettySize=auto;html=1;entryX=0;entryY=0.5;entryDx=0;entryDy=0;" edge="1" parent="1" source="ye5l1tjyb0kLey99E6Re-131" target="ye5l1tjyb0kLey99E6Re-121">
          <mxGeometry relative="1" as="geometry" />
        </mxCell>
        <mxCell id="ye5l1tjyb0kLey99E6Re-133" value="notifica" style="edgeLabel;html=1;align=center;verticalAlign=middle;resizable=0;points=[];" vertex="1" connectable="0" parent="ye5l1tjyb0kLey99E6Re-132">
          <mxGeometry x="0.1971" y="1" relative="1" as="geometry">
            <mxPoint as="offset" />
          </mxGeometry>
        </mxCell>
        <mxCell id="ye5l1tjyb0kLey99E6Re-131" value="Aplicação" style="image;points=[];aspect=fixed;html=1;align=center;shadow=0;dashed=0;image=img/lib/allied_telesis/computer_and_terminals/Personal_Computer.svg;" vertex="1" parent="1">
          <mxGeometry x="912.2" y="-134" width="45.6" height="61.800000000000004" as="geometry" />
        </mxCell>
        <mxCell id="ye5l1tjyb0kLey99E6Re-135" style="edgeStyle=orthogonalEdgeStyle;rounded=0;orthogonalLoop=1;jettySize=auto;html=1;entryX=0;entryY=0.5;entryDx=0;entryDy=0;" edge="1" parent="1" source="ye5l1tjyb0kLey99E6Re-134" target="ye5l1tjyb0kLey99E6Re-123">
          <mxGeometry relative="1" as="geometry" />
        </mxCell>
        <mxCell id="ye5l1tjyb0kLey99E6Re-136" value="retira" style="edgeLabel;html=1;align=center;verticalAlign=middle;resizable=0;points=[];" vertex="1" connectable="0" parent="ye5l1tjyb0kLey99E6Re-135">
          <mxGeometry x="0.1609" y="1" relative="1" as="geometry">
            <mxPoint as="offset" />
          </mxGeometry>
        </mxCell>
        <mxCell id="ye5l1tjyb0kLey99E6Re-134" value="Cliente" style="image;aspect=fixed;perimeter=ellipsePerimeter;html=1;align=center;shadow=0;dashed=0;spacingTop=3;image=img/lib/active_directory/user.svg;" vertex="1" parent="1">
          <mxGeometry x="919.4000000000001" y="33" width="18.5" height="50" as="geometry" />
        </mxCell>
      </root>
    </mxGraphModel>
  </diagram>
</mxfile>
